<mxfile host="app.diagrams.net" modified="2023-05-29T08:33:57.128Z" agent="Mozilla/5.0 (Macintosh; Intel Mac OS X 10_15_7) AppleWebKit/605.1.15 (KHTML, like Gecko) Version/16.4 Safari/605.1.15" version="21.3.5" etag="1kRrem5s0NAjsjgSqLYJ" type="github">
  <diagram name="Страница 1" id="6G8NwXc9VZonJmVgpGFG">
    <mxGraphModel>
      <root>
        <mxCell id="0" />
        <mxCell id="1" parent="0" />
      </root>
    </mxGraphModel>
  </diagram>
</mxfile>
